<?xml version="1.0" standalone="no"?>
<!DOCTYPE svg PUBLIC "-//W3C//DTD SVG 20010904//EN"
 "http://www.w3.org/TR/2001/REC-SVG-20010904/DTD/svg10.dtd">
<svg version="1.0" xmlns="http://www.w3.org/2000/svg"
 width="1368.000000pt" height="1368.000000pt" viewBox="0 0 1368.000000 1368.000000"
 preserveAspectRatio="xMidYMid meet">
<metadata>
Created by potrace 1.11, written by Peter Selinger 2001-2013
</metadata>
<g transform="translate(0.000000,1368.000000) scale(0.100000,-0.100000)"
fill="#000000" stroke="none">
<path d="M0 6840 l0 -6840 6840 0 6840 0 0 6840 0 6840 -6840 0 -6840 0 0
-6840z m4075 4229 c849 -79 1501 -435 1951 -1064 107 -150 285 -457 273 -470
-5 -4 -608 -235 -615 -235 -2 0 -16 24 -30 53 -126 249 -359 538 -559 693
-208 162 -466 290 -735 365 -449 124 -1064 110 -1512 -35 -303 -99 -576 -264
-793 -481 -395 -395 -618 -948 -702 -1740 -24 -229 -24 -780 1 -1000 53 -480
151 -844 321 -1190 337 -686 883 -1088 1641 -1210 135 -22 529 -31 675 -16
268 28 503 96 746 215 251 124 403 234 608 440 185 185 328 383 452 625 30 58
55 106 57 108 4 4 568 -256 580 -267 19 -18 -187 -353 -354 -575 -463 -616
-1133 -1013 -1890 -1121 -175 -24 -641 -30 -850 -10 -611 58 -1095 237 -1536
567 -138 103 -391 358 -498 501 -377 507 -587 1115 -666 1928 -18 184 -23 612
-11 820 63 1041 344 1784 881 2320 549 550 1307 816 2260 794 107 -3 245 -9
305 -15z m5870 -98 c442 -42 771 -106 1100 -216 383 -127 679 -286 964 -515
535 -430 889 -1086 1001 -1852 36 -245 45 -380 45 -708 0 -442 -31 -729 -115
-1067 -321 -1298 -1264 -2151 -2585 -2337 -236 -34 -338 -36 -1677 -36 l-1348
0 0 3376 0 3376 1248 -5 c820 -3 1288 -8 1367 -16z"/>
<path d="M8030 7616 l0 -2786 928 0 c578 0 970 4 1042 11 348 32 673 121 965
263 544 266 930 695 1168 1296 264 670 291 1676 62 2365 -118 354 -288 639
-528 884 -354 362 -815 581 -1441 686 -324 54 -396 57 -1328 62 l-868 5 0
-2786z"/>
</g>
</svg>
